<svg width="85" height="87" viewBox="0 0 85 87" fill="none" xmlns="http://www.w3.org/2000/svg">
<path fill-rule="evenodd" clip-rule="evenodd" d="M66.1633 0H9.74998V14H15.0214V74.1335C15.0214 79.5825 19.4448 84 24.9013 84H63.5625C68.6366 84 72.75 79.8866 72.75 74.8125V6.5779C72.75 2.94506 69.8014 0 66.1633 0Z" fill="url(#paint0_linear_2164_33311)"/>
<rect x="27.25" y="68.25" width="33.25" height="3.5" rx="1.75" fill="#B6C7D8"/>
<rect x="27.25" y="57.75" width="33.25" height="3.5" rx="1.75" fill="#B6C7D8"/>
<path fill-rule="evenodd" clip-rule="evenodd" d="M7.91511 0C11.828 0 15 3.17202 15 7.08489V14H0.999985V6.72672C0.999985 3.01156 4.09587 0 7.91511 0Z" fill="url(#paint1_linear_2164_33311)"/>
<g opacity="0.250953" filter="url(#filter0_f_2164_33311)">
<circle cx="20.25" cy="66.5" r="17.5" fill="#6F6F6F"/>
</g>
<circle cx="18.5" cy="66.5" r="17.5" fill="#DD1984"/>
<g filter="url(#filter1_d_2164_33311)">
<path d="M24.8057 61.6985C25.3649 61.1005 26.2715 61.1005 26.8306 61.6985C27.3468 62.2505 27.3865 63.1191 26.9497 63.7198L26.8306 63.864L18.2397 73.0515C17.7236 73.6035 16.9114 73.646 16.3497 73.1789L16.2148 73.0515L11.9194 68.4578C11.3602 67.8598 11.3602 66.8902 11.9194 66.2922C12.4355 65.7403 13.2477 65.6978 13.8094 66.1649L13.9443 66.2922L17.2273 69.802L24.8057 61.6985Z" fill="white"/>
</g>
<circle cx="43" cy="31.5" r="19.25" fill="url(#paint2_linear_2164_33311)"/>
<path d="M48.25 21C49.2165 21 50 21.7835 50 22.75C50 23.6475 49.3244 24.3871 48.4541 24.4882L48.25 24.5H41.6875C40.4794 24.5 39.5 25.4794 39.5 26.6875C39.5 27.8201 40.3608 28.7517 41.4638 28.8637L41.6875 28.875H44.3125C47.4536 28.875 50 31.4214 50 34.5625C50 37.5953 47.6262 40.0737 44.6352 40.241L44.3125 40.25H37.75C36.7835 40.25 36 39.4665 36 38.5C36 37.6025 36.6756 36.8629 37.5459 36.7618L37.75 36.75H44.3125C45.5206 36.75 46.5 35.7706 46.5 34.5625C46.5 33.4299 45.6392 32.4983 44.5361 32.3863L44.3125 32.375H41.6875C38.5464 32.375 36 29.8286 36 26.6875C36 23.6547 38.3738 21.1763 41.3647 21.009L41.6875 21H48.25Z" fill="white"/>
<path d="M42.79 17.5C43.6874 17.5 44.4271 18.1756 44.5282 19.0459L44.54 19.25V22.75C44.54 23.7165 43.7565 24.5 42.79 24.5C41.8925 24.5 41.1528 23.8244 41.0518 22.9541L41.04 22.75V19.25C41.04 18.2835 41.8235 17.5 42.79 17.5Z" fill="white"/>
<path d="M42.79 36.75C43.6874 36.75 44.4271 37.4256 44.5282 38.2959L44.54 38.5V42C44.54 42.9665 43.7565 43.75 42.79 43.75C41.8925 43.75 41.1528 43.0744 41.0518 42.2041L41.04 42V38.5C41.04 37.5335 41.8235 36.75 42.79 36.75Z" fill="white"/>
<defs>
<filter id="filter0_f_2164_33311" x="0.031703" y="46.2817" width="40.4366" height="40.4366" filterUnits="userSpaceOnUse" color-interpolation-filters="sRGB">
<feFlood flood-opacity="0" result="BackgroundImageFix"/>
<feBlend mode="normal" in="SourceGraphic" in2="BackgroundImageFix" result="shape"/>
<feGaussianBlur stdDeviation="1.35914" result="effect1_foregroundBlur_2164_33311"/>
</filter>
<filter id="filter1_d_2164_33311" x="9.49998" y="59.25" width="19.75" height="16.25" filterUnits="userSpaceOnUse" color-interpolation-filters="sRGB">
<feFlood flood-opacity="0" result="BackgroundImageFix"/>
<feColorMatrix in="SourceAlpha" type="matrix" values="0 0 0 0 0 0 0 0 0 0 0 0 0 0 0 0 0 0 127 0" result="hardAlpha"/>
<feOffset/>
<feGaussianBlur stdDeviation="1"/>
<feColorMatrix type="matrix" values="0 0 0 0 0.000815457 0 0 0 0 0.563094 0 0 0 0 0.402443 0 0 0 0.272946 0"/>
<feBlend mode="normal" in2="BackgroundImageFix" result="effect1_dropShadow_2164_33311"/>
<feBlend mode="normal" in="SourceGraphic" in2="effect1_dropShadow_2164_33311" result="shape"/>
</filter>
<linearGradient id="paint0_linear_2164_33311" x1="72.75" y1="84" x2="72.75" y2="0" gradientUnits="userSpaceOnUse">
<stop stop-color="#C9D6E3"/>
<stop offset="1" stop-color="#E9EEF5"/>
</linearGradient>
<linearGradient id="paint1_linear_2164_33311" x1="0.999985" y1="14" x2="15" y2="14" gradientUnits="userSpaceOnUse">
<stop stop-color="#DAE0E7"/>
<stop offset="1" stop-color="#B3C5D6"/>
</linearGradient>
<linearGradient id="paint2_linear_2164_33311" x1="23.75" y1="12.25" x2="23.75" y2="50.75" gradientUnits="userSpaceOnUse">
<stop stop-color="#B1C0CF"/>
<stop offset="1" stop-color="#CEDAE6"/>
</linearGradient>
</defs>
</svg>
