<svg width="84" height="84" viewBox="0 0 84 84" fill="none" xmlns="http://www.w3.org/2000/svg">
  <path fill-rule="evenodd" clip-rule="evenodd"
    d="M68.6633 0H12.25V14H17.5215V74.1335C17.5215 79.5825 21.9448 84 27.4013 84H66.0625C71.1366 84 75.25 79.8866 75.25 74.8125V6.5779C75.25 2.94506 72.3014 0 68.6633 0Z"
    fill="url(#paint0_linear_2228_36726)" />
  <path fill-rule="evenodd" clip-rule="evenodd"
    d="M10.4151 0C14.328 0 17.5 3.17202 17.5 7.08489V14H3.5V6.72672C3.5 3.01156 6.59589 0 10.4151 0Z"
    fill="url(#paint1_linear_2228_36726)" />
  <rect opacity="0.2" x="24.5" y="31.5" width="10.5" height="3.5" rx="1.75" fill="#97ABBE" />
  <rect opacity="0.2" x="42" y="31.5" width="26.25" height="3.5" rx="1.75" fill="#97ABBE" />
  <rect opacity="0.2" x="24.5" y="21" width="10.5" height="3.5" rx="1.75" fill="#97ABBE" />
  <rect opacity="0.2" x="42" y="21" width="26.25" height="3.5" rx="1.75" fill="#97ABBE" />
  <rect opacity="0.2" x="24.5" y="42" width="10.5" height="3.5" rx="1.75" fill="#97ABBE" />
  <rect opacity="0.2" x="42" y="42" width="26.25" height="3.5" rx="1.75" fill="#97ABBE" />
  <circle cx="63" cy="63" r="21" fill="#D82B80" />
  <path
    d="M56.3253 71.1058C58.1397 72.6016 60.4649 73.5 63 73.5C68.799 73.5 73.5 68.799 73.5 63C73.5 57.201 68.799 52.5 63 52.5C57.201 52.5 52.5 57.201 52.5 63L52.5038 64.7418"
    stroke="white" stroke-width="1.5" stroke-linecap="round" />
  <path d="M63 57.75V63H68.25" stroke="white" stroke-width="1.5" stroke-linecap="round" stroke-linejoin="round" />
  <path d="M49 63L52.4458 66.4836L56 63" stroke="white" stroke-width="1.5" stroke-linecap="round"
    stroke-linejoin="round" />
  <defs>
    <linearGradient id="paint0_linear_2228_36726" x1="75.25" y1="84" x2="75.25" y2="0" gradientUnits="userSpaceOnUse">
      <stop stop-color="#E9EEF5" />
      <stop offset="1" stop-color="#C9D6E3" />
    </linearGradient>
    <linearGradient id="paint1_linear_2228_36726" x1="3.5" y1="14" x2="17.5" y2="14" gradientUnits="userSpaceOnUse">
      <stop stop-color="#DAE0E7" />
      <stop offset="1" stop-color="#B3C5D6" />
    </linearGradient>
  </defs>
</svg>
