<svg width="85" height="84" viewBox="0 0 85 84" fill="none" xmlns="http://www.w3.org/2000/svg">
<path fill-rule="evenodd" clip-rule="evenodd" d="M49.252 16.0386C48.0392 15.3279 46.7553 14.7573 45.403 14.3493C36.1856 11.5687 23.4024 10.6035 14.5771 15.1372C11.8728 16.5266 9.5266 18.615 7.83153 21.3146C3.99228 27.4299 1.51405 33.6821 5.00604 40.7775C7.26807 45.3744 11.3303 47.5999 14.2014 51.5091C19.6477 58.9248 17.8348 70.5495 26.1446 75.8183C32.2379 79.682 40.0221 77.845 46.0519 74.7073C52.1351 71.542 57.3954 66.2154 60.4349 59.6115C61.1719 58.0103 61.782 56.3395 62.2478 54.6202C65.7449 41.7119 60.6291 22.7058 49.252 16.0386Z" fill="#E7F3F9"/>
<path fill-rule="evenodd" clip-rule="evenodd" d="M22.2085 58.5366C25.1947 58.5366 28.0034 57.393 30.1151 55.3175L41.5315 44.0922C42.3326 43.3017 43.7299 43.304 44.531 44.0922L55.989 55.3588C58.1011 57.4343 60.9094 58.5775 63.8961 58.5775H66.1456L51.6867 72.7948C47.1708 77.2353 39.8499 77.2353 35.334 72.7948L20.8331 58.5366H22.2085Z" fill="#D82B80"/>
<path fill-rule="evenodd" clip-rule="evenodd" d="M63.8965 17.5369C60.9097 17.5369 58.1014 18.6795 55.9893 20.7537L44.531 32.0159C43.7062 32.8265 42.3586 32.8301 41.5315 32.0145L30.1148 20.7945C28.0031 18.7203 25.1944 17.5778 22.208 17.5778H20.8331L35.3338 3.32804C39.8498 -1.10935 47.1709 -1.10935 51.6869 3.32804L66.1456 17.5369H63.8965Z" fill="#D82B80"/>
<path fill-rule="evenodd" clip-rule="evenodd" d="M9.72022 30.1489L18.3584 21.79H23.0909C25.1512 21.79 27.1673 22.5984 28.6232 24.0082L40.0408 35.0571C41.1095 36.0908 42.5134 36.6082 43.9159 36.6082C45.3197 36.6082 46.7227 36.0908 47.791 35.0584L59.2519 23.968C60.7074 22.5582 62.7239 21.7498 64.7843 21.7498H70.391L79.0707 30.1489C83.5873 34.5194 83.5873 41.6051 79.0707 45.9757L70.391 54.3743L64.7843 54.3748C62.7239 54.3748 60.7074 53.5663 59.2519 52.1566L47.7924 41.0675C45.7206 39.0649 42.1103 39.064 40.0408 41.0684L28.6232 52.116C27.1673 53.5257 25.1512 54.3341 23.0909 54.3341H18.3579L9.72022 45.9757C5.20414 41.6051 5.20414 34.5194 9.72022 30.1489Z" fill="#D82B80"/>
</svg>
